<svg width="1200" height="594" viewBox="0 0 1200 594" fill="none" xmlns="http://www.w3.org/2000/svg">
<path d="M0 0V490.354C0 490.354 200 379.082 336.5 466C473 552.918 628 411 715.48 516.423C802.961 621.846 874.922 562.916 909.016 526.921C939.131 495.128 942.054 488.118 970.5 472.5C996 458.5 1030.11 479.297 1040.38 507.924C1048.41 530.315 1042.43 540.919 1048 565.5C1050.44 576.273 1066 592.5 1066 592.5C1066 592.5 1072.03 593.737 1078 592.5C1082.38 591.591 1086.42 587.956 1085.5 584.5C1084.9 582.247 1083.06 582.271 1080.99 580.414L1080.67 580.122C1078.6 578.267 1077.34 577.131 1075.48 574.914C1073.49 572.546 1072.47 571.115 1070.96 568.415C1069.22 565.276 1068.35 563.394 1067.45 559.917C1066.77 557.241 1066.39 555.678 1066.45 552.918C1066.51 550.543 1066.94 549.238 1067.45 546.918C1068.07 544.142 1068.6 542.63 1069.46 539.919C1070.52 536.563 1070.83 534.538 1072.47 531.421C1074.41 527.72 1077.48 510.868 1133.94 476.844C1169.13 455.64 1200.33 406.581 1199.96 394.941V55.9909V29.4948C1199.96 29.4948 1200.05 27.3587 1199.96 25.9953C1199.81 23.8177 1199.96 0 1199.96 0H1173H1144.5H0Z" fill="#08293E"/>
</svg>
